<?xml version="1.0" standalone="no"?>
<!DOCTYPE svg PUBLIC "-//W3C//DTD SVG 20010904//EN"
 "http://www.w3.org/TR/2001/REC-SVG-20010904/DTD/svg10.dtd">
<svg version="1.0" xmlns="http://www.w3.org/2000/svg"
 width="512.000000pt" height="512.000000pt" viewBox="0 0 512.000000 512.000000"
 preserveAspectRatio="xMidYMid meet">
<metadata>
Created by potrace 1.14, written by Peter Selinger 2001-2017
</metadata>
<g transform="translate(0.000000,512.000000) scale(0.100000,-0.100000)"
fill="#000000" stroke="none">
<path d="M2360 5054 c-74 -32 -113 -91 -111 -169 0 -27 34 -191 75 -363 l73
-314 -31 6 c-90 17 -254 18 -335 2 -79 -16 -121 -30 -323 -108 -113 -43 -188
-43 -322 0 -146 47 -198 41 -199 -23 0 -32 66 -118 166 -216 l77 -77 -57 -32
c-165 -93 -351 -238 -484 -376 -565 -590 -705 -1407 -364 -2120 201 -421 528
-745 977 -968 487 -243 1076 -308 1623 -179 469 110 904 373 1196 722 491 585
594 1347 275 2016 -165 345 -413 623 -753 846 l-103 66 58 38 c61 40 258 234
281 277 8 16 11 37 7 53 -9 37 -44 47 -102 29 -153 -47 -313 -56 -435 -25 -41
10 -137 48 -214 83 -77 36 -178 78 -225 94 -78 26 -97 29 -221 29 l-136 0 -63
260 c-80 333 -93 375 -127 407 -57 55 -136 71 -203 42z m113 -131 c8 -10 65
-218 127 -463 61 -244 116 -452 121 -462 13 -23 52 -33 78 -19 32 18 35 54 12
148 -26 103 -26 103 75 103 103 0 200 -29 389 -115 221 -101 256 -110 433
-110 l144 0 -39 -34 c-163 -142 -335 -204 -574 -205 -150 -1 -169 -8 -169 -57
0 -31 2 -34 97 -104 140 -104 243 -297 243 -456 l0 -53 -42 40 c-66 63 -100
83 -205 119 -218 74 -308 133 -420 278 -38 49 -49 57 -77 57 -43 0 -71 -31
-132 -149 -61 -118 -135 -200 -206 -231 -42 -18 -84 -25 -196 -32 -79 -5 -146
-7 -149 -4 -9 9 45 113 117 226 39 61 79 132 87 156 18 54 14 175 -7 218 -25
48 -40 52 -122 32 -101 -25 -219 -31 -307 -16 -85 14 -204 71 -269 127 l-43
38 108 0 c94 0 118 4 183 29 300 113 327 120 450 120 96 0 131 -5 213 -28 92
-27 99 -27 122 -12 18 12 25 25 25 50 0 18 -38 197 -85 398 -47 201 -85 372
-85 379 0 42 73 65 103 32z"/>
</g>
</svg>
